# xmcd CD database file
#
# Track frame offsets:
#	150
#	16970
#	48084
#	67338
#	92399
#	124340
#	144491
#	168247
#	186624
#	215692
#
# Disc length: 3129 seconds
#
# Revision: 0
# Processed by: cddbd v1.5.2PL0 Copyright (c) Steve Scherf et al.
# Submitted via: jetAudio 7
#
DISCID=920c370a
DTITLE=餘亦五 - 桂林
DYEAR=1900
DGENRE=장르 없음
TTITLE0=The Peak of Foled Brocade Hill
TTITLE1=The Solute Catve
TTITLE2=Sheng Dance
TTITLE3=The Moonlit Night Of Camel Hill
TTITLE4=Fishing In Twilight
TTITLE5=The Ancient Banyan of Yangshou
TTITLE6=Lijiang River Travel
TTITLE7=The Meditation for Mural Hill
TTITLE8=A Streets View after Rain
TTITLE9=Horse Tighing
EXTD=
EXTT0=
EXTT1=
EXTT2=
EXTT3=
EXTT4=
EXTT5=
EXTT6=
EXTT7=
EXTT8=
EXTT9=
PLAYORDER=
